<svg xmlns="http://www.w3.org/2000/svg" viewBox="0 0 87.85 106.525" overflow="visible" enable-background="new 0 0 87.85 85.22" xml:space="preserve" x="0px" y="0px"><path d="M68.04,12.08c-6.24,0-6.24,9.47,0,9.47C74.28,21.55,74.27,12.08,68.04,12.08z M9.63,22.13c-8.73,0-8.75,13.26,0,13.26  C18.37,35.39,18.37,22.13,9.63,22.13z M80.05,36.79c-6.24,0-6.24,9.47,0,9.47C86.29,46.26,86.29,36.79,80.05,36.79z M66.97,70.45  c-6.23,0-6.25,9.47,0,9.47C73.22,79.91,73.2,70.45,66.97,70.45z M42.51,3.06c-6.24,0-6.24,9.47,0,9.47  C48.75,12.52,48.75,3.06,42.51,3.06z M17.47,69.81c-6.24,0-6.24,9.47,0,9.47C23.71,79.28,23.71,69.81,17.47,69.81z M33.06,55.45  c-1.75,2.04-4.48,3.06-7.13,2.67l-3.71,10.17c2.79,2.12,3.86,5.96,2.54,9.21c10.72,6.01,24,6.15,34.85,0.37  c-0.71-1.95-0.61-4.16,0.28-6.04L33.06,55.45z M28.28,42.59l10.24-28.04c-1.67-0.99-2.94-2.59-3.51-4.44  c-7.39,1.55-14.2,5.45-19.31,11.01c4.34,3.45,4.92,9.9,1.26,14.07l6.72,8.08C25.1,42.59,26.72,42.35,28.28,42.59z M27.09,45.62  c-6.24,0-6.24,9.47,0,9.47C33.34,55.08,33.31,45.62,27.09,45.62z M43.68,42.49c-0.28-4.41,1.79-8.41,5.81-10.4l-5.98-16.51  c-0.68,0.09-1.37,0.09-2.05,0L31.2,43.66c1.09,0.67,2,1.61,2.65,2.71L43.68,42.49z M56.62,51.77c-5.01,1.19-10.21-1.46-12.18-6.22  l-9.56,3.77c0.15,1.14,0.05,2.31-0.3,3.4l27.17,16.6c0.3-0.27,0.62-0.51,0.96-0.73L56.62,51.77z M64.58,43.09  c-0.46,3.12-2.36,5.91-5.07,7.51l6.1,16.85c1.83-0.32,3.75,0.02,5.35,0.97c4.37-5.47,7.09-12.18,7.77-19.15  c-3.16-0.54-5.74-3.04-6.37-6.18H64.58z M64.58,39.97h7.77c0.73-3.65,3.98-6.3,7.7-6.3c9.25,0,10.79,13.36,1.82,15.49  c-0.67,7.78-3.69,15.26-8.58,21.34c5.85,7.87-5.37,17.21-12.06,10.02c-11.88,6.4-26.48,6.24-38.21-0.43  c-1.46,1.46-3.48,2.29-5.55,2.29c-11.64,0-9.38-18.31,1.92-15.47l3.61-9.87c-4.13-2.53-5.01-8.24-1.8-11.89l-6.64-7.99  c-1.49,0.87-3.19,1.33-4.92,1.33c-12.85,0-12.85-19.5,0-19.5c1.11,0,2.22,0.19,3.27,0.56C18.58,13.16,26.3,8.68,34.7,7  c0.94-9.33,14.69-9.33,15.62,0c4.19,0.84,8.23,2.38,11.92,4.51c4.82-5.26,13.64-1.83,13.64,5.3c0,12.18-19.34,8.85-15.25-2.63  c-3.3-1.9-6.9-3.28-10.63-4.07c-0.58,1.86-1.86,3.47-3.54,4.45l5.99,16.56C58.23,30.19,63.73,34.18,64.58,39.97z M54.17,34.11  c-9.74,0-9.79,14.82,0,14.82C63.94,48.93,63.94,34.11,54.17,34.11z"/></svg>